<?xml version="1.0" standalone="no"?>
<!DOCTYPE svg PUBLIC "-//W3C//DTD SVG 20010904//EN"
 "http://www.w3.org/TR/2001/REC-SVG-20010904/DTD/svg10.dtd">
<svg version="1.0" xmlns="http://www.w3.org/2000/svg"
 width="360.000000pt" height="360.000000pt" viewBox="0 0 360.000000 360.000000"
 preserveAspectRatio="xMidYMid meet">
<metadata>
Created by potrace 1.11, written by Peter Selinger 2001-2013
</metadata>
<g transform="translate(0.000000,360.000000) scale(0.100000,-0.100000)"
fill="#000000" stroke="none">
<path d="M340 2491 c0 -65 2 -70 23 -73 l22 -3 3 -577 2 -578 265 0 265 0 0
70 0 70 -195 0 -195 0 0 510 c0 497 0 510 19 510 23 0 27 15 23 86 l-4 54
-114 0 -114 0 0 -69z"/>
<path d="M2827 2549 c-88 -21 -186 -95 -234 -176 -50 -86 -53 -116 -53 -564
l0 -416 -22 1 c-21 1 -23 -4 -26 -66 l-3 -68 121 0 121 0 -3 68 c-2 44 -7 67
-15 68 -7 1 -17 2 -23 3 -6 1 -10 80 -10 216 l0 215 205 0 205 0 0 70 0 70
-206 0 -206 0 4 138 c4 148 16 187 72 244 56 56 86 63 279 66 l177 3 0 70 0
69 -172 -1 c-95 -1 -190 -5 -211 -10z"/>
<path d="M1381 2526 c-12 -13 -28 -43 -36 -67 -15 -50 -285 -901 -316 -996
-16 -48 -25 -63 -40 -63 -17 0 -19 -8 -19 -70 l0 -70 115 0 115 0 0 70 c0 63
-2 70 -20 70 -11 0 -20 2 -20 4 0 4 84 272 211 671 39 121 73 223 77 227 4 4
46 -116 93 -267 l86 -274 -56 -178 c-50 -155 -60 -178 -79 -181 -20 -3 -22 -9
-22 -73 l0 -69 235 0 235 0 0 70 c0 68 -1 70 -25 70 -23 0 -28 11 -80 173 -30
94 -55 179 -55 188 0 12 168 550 173 556 1 1 23 -65 49 -145 25 -81 65 -205
88 -277 162 -506 158 -493 139 -498 -16 -4 -19 -15 -19 -71 l0 -66 120 0 120
0 0 70 c0 70 0 70 -28 70 l-28 0 -168 533 c-93 292 -173 541 -179 552 -22 46
-49 65 -93 65 -78 0 -75 6 -189 -363 -32 -103 -61 -184 -65 -180 -4 4 -42 118
-84 253 -86 275 -95 290 -170 290 -32 0 -48 -6 -65 -24z m358 -1113 c1 -9 -13
-13 -40 -13 -35 0 -40 3 -34 18 4 9 12 33 17 52 6 19 13 39 16 44 5 9 40 -75
41 -101z"/>
</g>
</svg>
